<svg xmlns="http://www.w3.org/2000/svg" version="1.1" xmlns:xlink="http://www.w3.org/1999/xlink" xmlns:svgjs="http://svgjs.com/svgjs" width="512" height="512" x="0" y="0" viewBox="0 0 512 512" style="enable-background:new 0 0 512 512" xml:space="preserve" class=""><g><path d="M260.471 321.934v-53.149a26.663 26.663 0 0 1 7.845-18.927 26.667 26.667 0 0 1 18.927-7.845c14.79 0 26.772 11.99 26.772 26.772v12.975" style="stroke-width:15;stroke-linecap:round;stroke-linejoin:round;stroke-miterlimit:10;" fill="none" stroke="#005e54" stroke-width="15" stroke-linecap="round" stroke-linejoin="round" stroke-miterlimit="10" data-original="#000000"></path><path d="M314.014 321.934v-40.175c0-7.391 2.997-14.08 7.845-18.927a26.667 26.667 0 0 1 18.927-7.845c14.79 0 26.772 11.99 26.772 26.772v20.271M135.309 385.31l-38.92-51.92c-9.32-12.42-6.52-30.09 6.19-39.03a27.416 27.416 0 0 1 15.82-5.01c8.2 0 16.29 3.65 21.7 10.57l51.52 65.87c5.02 6.41 15.31 2.86 15.31-5.28V144.77c0-7.39 3-14.08 7.84-18.93a26.678 26.678 0 0 1 19.58-7.84c14.62.35 26.12 12.68 26.12 27.31v123.47" style="stroke-width:15;stroke-linecap:round;stroke-linejoin:round;stroke-miterlimit:10;" fill="none" stroke="#005e54" stroke-width="15" stroke-linecap="round" stroke-linejoin="round" stroke-miterlimit="10" data-original="#000000"></path><path d="m156.299 413.32 39.89 53.22a94.878 94.878 0 0 0 75.9 37.96h57.8a94.862 94.862 0 0 0 79.68-43.39 72.165 72.165 0 0 0 11.55-39.16V302.01c-.01-14.78-11.99-26.76-26.78-26.76-7.4 0-14.09 3-18.94 7.85a26.702 26.702 0 0 0-7.84 18.93v27.21M316.279 66.74a86.727 86.727 0 0 1 4.59 27.93c0 27.28-12.6 51.67-32.29 67.67M178.809 162.34c-19.68-16-32.28-40.39-32.28-67.67 0-48.06 39.1-87.17 87.17-87.17 25.67 0 48.78 11.15 64.74 28.87" style="stroke-width:15;stroke-linecap:round;stroke-linejoin:round;stroke-miterlimit:10;" fill="none" stroke="#005e54" stroke-width="15" stroke-linecap="round" stroke-linejoin="round" stroke-miterlimit="10" data-original="#000000"></path><path d="M185.107 119.215a54.185 54.185 0 0 1-5.843-24.548c0-30.06 24.377-54.437 54.437-54.437s54.427 24.377 54.427 54.437a54.249 54.249 0 0 1-5.924 24.718" style="stroke-width:15;stroke-linecap:round;stroke-linejoin:round;stroke-miterlimit:10;" fill="none" stroke="#005e54" stroke-width="15" stroke-linecap="round" stroke-linejoin="round" stroke-miterlimit="10" data-original="#000000"></path></g></svg>