<?xml version="1.0" encoding="utf-8"?>
<!-- Generator: Adobe Illustrator 23.0.2, SVG Export Plug-In . SVG Version: 6.00 Build 0)  -->
<svg version="1.1" id="Layer_1" xmlns="http://www.w3.org/2000/svg" xmlns:xlink="http://www.w3.org/1999/xlink" x="0px" y="0px"
	 viewBox="0 0 1164.3 174.9" style="enable-background:new 0 0 1164.3 174.9;" xml:space="preserve">
<style type="text/css">
	.st0{fill:#005E54;}
	.st1{fill:none;stroke:#FFFFFF;stroke-width:4;}
</style>
<path id="F" class="st0" d="M719.2,65.3c-2.7,2.2-4.1,7.1-4.1,15c8.7,0,14.7,0.8,18.1,2.5c3.4,1.5,5.1,4.9,5.1,10.2
	c0,4.3-1.8,7.1-5.5,8.5c-3.6,1.3-9.5,1.9-17.7,1.9v33.2c0,10.8-1.8,18.2-5.3,22.4c-3.4,4-8.8,6.1-16.2,6.1c-7.3,0-12.6-2-16-5.9
	c-3.4-4.1-5.1-11.1-5.1-21.2l0.2-34.5c-9.6-0.1-14.4-3.8-14.4-11c0-7.5,4.9-11.4,14.6-11.9c0.1-16.3,2.5-27.9,7.2-34.7
	c4.8-7,14-10.4,27.5-10.4c10.8,0,19.2,2.2,25.1,6.5c6.1,4.3,9.2,8.7,9.2,13.1c0,1.9-0.8,3.6-2.5,5.1c-1.6,1.4-3.8,2.1-6.8,2.1
	C726.3,62,721.8,63.1,719.2,65.3L719.2,65.3z"/>
<path id="A" class="st0" d="M790.2,166.1c-10.3,0-18.8-4-25.5-12.1c-6.8-8.2-10.1-19.4-10.1-33.6c0-14.4,3.3-25.8,9.9-34.3
	c6.8-8.6,15.3-12.9,25.7-12.9c10.5,0,20.3,3.6,29.2,10.8c3.5-6.3,9.2-9.5,16.9-9.5c7,0,12.5,1.5,16.4,4.6c3.9,2.9,5.8,8.3,5.8,16.3
	v49.3c0,7.6-1.6,12.9-4.9,15.9c-3.2,2.9-9,4.4-17.1,4.4c-8.6,0-14.2-2.3-16.9-7C811.3,163.4,801.5,166.1,790.2,166.1L790.2,166.1z
	 M816.7,102.2c-2.2-3.7-5.1-5.5-8.6-5.5c-3.4,0-6.1,2.4-8.2,7.2s-3.1,10.3-3.1,16.5c0,5.8,1,11,2.9,15.5c2,4.6,4.7,6.8,8.2,6.8
	c3.6,0,6.6-1.7,8.8-5.1L816.7,102.2L816.7,102.2z"/>
<path id="M" class="st0" d="M986.5,114.9c0-7.1-2.9-10.6-8.8-10.6c-2.6,0-4.5,1.4-5.8,4.4c-1.3,2.9-2,6.6-2,11
	c0,6.7-0.1,12.3-0.4,16.7c-0.1,4.4-0.5,8.4-1.2,11.9s-1.4,6.3-2.3,8.3c-0.9,2-2.1,3.7-3.7,5.1c-1.5,1.3-3.3,2.2-5.3,2.7
	c-2,0.4-4.4,0.6-7.4,0.6c-4.5,0-8.2-0.6-11.1-1.9c-2.7-1.3-4.7-3-5.8-5.3c-1.2-2.3-1.8-5.1-1.8-8.5V115c0-7.1-2.9-10.6-8.8-10.6
	c-2.3,0-4.3,1.3-5.8,4c-1.4,2.5-2.1,5.9-2.1,10.1v26.4c0,7.6-1.6,12.9-4.9,15.9c-3.2,2.9-9,4.4-17.1,4.4c-7.7,0-12.9-1.7-15.8-5.1
	c-2.7-3.5-4.1-9.3-4.1-17.3V96c0-6.4,1.8-11.6,5.3-15.6c3.6-3.9,8.4-5.9,14.4-5.9c10.6,0,17.4,3.3,20.3,10.1c4.9-3.5,9.7-6,14.4-7.4
	c4.8-1.4,10.4-2.1,16.8-2.1c9.6,0,16.5,4.1,20.8,12.1c0.7-0.5,1.3-1,2-1.5c10-7.1,22.3-10.6,36.8-10.6c9.2,0,15.8,3.4,19.9,10.2
	c4,6.8,6,18.3,6,34.3c0,6.7-0.1,12.3-0.4,16.7c-0.1,4.4-0.5,8.4-1.2,11.9s-1.5,6.3-2.5,8.3c-0.9,2-2.3,3.7-4.1,5.1
	c-1.7,1.3-3.6,2.1-5.8,2.7c-2.1,0.4-4.7,0.6-8,0.6c-4.9,0-9-0.6-12.1-1.9c-3-1.3-5.1-3-6.4-5.3c-1.3-2.3-1.9-5.1-1.9-8.5
	L986.5,114.9L986.5,114.9z"/>
<path id="E" class="st0" d="M1098.1,166.1c-15.8,0-28.9-4-39.3-11.9c-10.3-8-15.4-18.8-15.4-32.6c0-14.9,5.1-26.7,15.2-35.3
	c10.3-8.7,23.4-13.1,39.5-13.1c15.2,0,26.3,2.7,33.3,8c7.1,5.2,10.7,12.3,10.7,21.4c0,1.8-0.3,3.5-0.8,5.1c-0.4,1.6-1.1,3.3-2.1,4.9
	c-0.9,1.5-2.2,3-3.9,4.4c-1.6,1.3-3.4,2.5-5.4,3.6c-2.1,1-4.5,1.8-7.4,2.5c-2.9,0.5-5.9,0.8-9.2,0.8l-27.4,0.2
	c1.3,4.1,3.6,7.3,7,9.7c3.4,2.3,7.7,3.4,12.8,3.4c5.6,0,11.3-0.7,17.1-2.1c2.5-0.6,5.1-1.6,8-3c3-1.4,5.1-2.1,6.4-2.1
	c2.2,0,3.9,0.6,5.1,1.9c1.3,1.3,1.9,2.8,1.9,4.7c0,2.3-1,5.1-3.1,8.3s-5,6.4-8.8,9.7c-3.6,3.2-8.5,5.9-14.6,8.1
	C1111.6,165,1105.1,166.1,1098.1,166.1L1098.1,166.1z M1084.8,111.9c9-0.1,13.8-0.2,14.6-0.2c1.9,0,3.4-1.1,4.3-3.4
	c0.7-1.6,1-3.9,1-6.8c0-8-2.5-11.9-7.4-11.9c-1.8,0-3.6,0.9-5.4,2.8c-1.7,1.9-3.2,4.6-4.5,8.2
	C1086.1,103.9,1085.2,107.7,1084.8,111.9z"/>
<path id="U" class="st0" d="M139.9,58v56.4c0,18.4-4.6,31.6-13.8,39.7C117,162,101.6,166,80,166c-20.6,0-35.8-4.3-45.5-12.9
	c-9.6-8.6-14.4-21.5-14.4-38.8V58c0-6.7,2-12.1,6-16.3c4.1-4.3,9.3-6.4,15.6-6.4c7.7,0,13.4,1.4,17.3,4.2c4,2.8,6,8.4,6,16.8v61.6
	c0.1,4,0.8,7.3,1.9,9.6c1.3,2.4,3,4.1,5.1,5.1c2.1,0.9,4.7,1.3,8,1.3s5.9-0.4,8-1.1s3.6-1.9,4.5-3.6c1-1.6,1.7-3.3,1.9-4.9
	c0.4-1.6,0.6-3.8,0.6-6.4V56.1c0-4.3,0.5-7.9,1.6-10.8c1.2-2.9,2.8-5,5.1-6.4c2.3-1.4,4.7-2.3,7-2.8c2.5-0.5,5.4-0.8,8.8-0.8
	c7.5,0,13.1,1.8,16.9,5.3S139.9,49.9,139.9,58L139.9,58z"/>
<path id="N" class="st0" d="M215,113.9c0-7.1-2.9-10.6-8.6-10.6c-2.7,0-5,1.1-6.8,3.4c-1.7,2.1-2.7,5-2.9,8.7v29.1
	c0,7.7-1.6,13-4.9,15.9c-3.2,2.9-8.9,4.4-17.1,4.4c-7.6,0-12.9-1.7-15.8-5.1c-2.7-3.5-4.1-9.3-4.1-17.2V96c0-6.4,1.8-11.6,5.3-15.5
	c3.6-3.9,8.4-5.9,14.4-5.9c4.9,0,9.1,0.7,12.4,2.1c3.4,1.4,5.9,3.8,7.6,7.2c10.1-6.4,22.4-9.6,36.9-9.6c9.2,0,15.8,3.5,19.8,10.6
	c4.1,7.1,6.2,18.7,6.2,34.8c0,7.9-0.2,14.4-0.6,19.5c-0.4,4.9-1,9.2-1.9,12.9c-0.8,3.5-2.1,6.2-3.9,7.9c-1.8,1.8-3.9,3-6.4,3.8
	c-2.3,0.8-5.4,1.1-9.1,1.1c-7.3,0-12.5-1.3-15.8-4c-3.1-2.6-4.7-6.6-4.7-11.7V113.9L215,113.9z"/>
<path id="B" class="st0" d="M315.3,82.4c8.5-6.2,17.8-9.3,27.8-9.3c10.1,0,18.5,4.2,25.3,12.5s10.1,18.8,10.1,31.6
	c0,15.4-5.1,27.4-15.4,36.1c-10.2,8.6-23.5,12.9-39.9,12.9c-10,0-18.7-1.4-26.2-4.2c-7.4-2.8-13.2-6.9-17.5-12.5
	c-4.1-5.6-6.3-12.2-6.4-20l-0.4-71.3c0-7.8,1.9-13.5,5.8-17.2s9.1-5.5,15.5-5.5c7.3,0,12.6,1.7,15.9,5.1c3.5,3.3,5.3,8.6,5.3,15.9
	L315.3,82.4L315.3,82.4z M315.5,135.9c2.3,4.3,5.6,6.4,9.7,6.4c3.5,0,6.2-2.1,8.2-6.4s2.9-9.2,2.9-14.8c0-3-0.3-6-0.8-8.9
	s-1.2-5.5-2.1-7.8c-0.9-2.4-2.1-4.3-3.5-5.7c-1.4-1.5-3-2.3-4.9-2.3c-4,0-7.2,2.3-9.5,7v14.2C315.5,125.4,315.5,131.5,315.5,135.9
	L315.5,135.9z"/>
<path id="X" class="st0" d="M590.3,146.1c-0.3,0.4-1.1,1.3-2.5,2.6c-1.4,1.4-2.4,2.3-2.9,2.8c-0.4,0.5-1.3,1.4-2.7,2.8
	c-1.3,1.3-2.3,2.2-3.1,2.8c-0.7,0.5-1.6,1.3-2.9,2.3c-1.3,1-2.5,1.8-3.5,2.3c-0.9,0.4-1.9,0.9-3.1,1.5c-1.2,0.5-2.3,0.9-3.5,1.1
	c-1.2,0.3-2.3,0.4-3.5,0.4c-5.7,0-11.2-2.3-16.3-6.8s-7.8-9.4-7.8-14.6c0-1.3,0.5-2.6,1.6-4.2c1.2-1.6,2.8-3.4,4.9-5.3
	c2.2-1.9,4.1-3.5,5.6-4.9c1.7-1.4,3.8-3,6.2-4.9c2.6-1.9,4.2-3.1,4.7-3.6c-1-0.8-2.5-1.9-4.5-3.4c-1.6-1.4-3.3-2.8-4.9-4.2
	c-1.3-1.1-2.8-2.5-4.5-4.2c-1.7-1.8-3-3.4-4.1-4.9c-0.9-1.6-1.8-3.5-2.5-5.5c-0.8-2-1.2-4.1-1.2-6.2c0-4.3,2.1-8.3,6.4-11.9
	c4.3-3.7,8.7-5.5,13.2-5.5c2.5,0,4.9,0.5,7.2,1.5s4.5,2.5,6.6,4.3c2.2,1.8,4.2,3.6,5.8,5.5c1.8,1.8,3.8,3.9,5.8,6.4
	c2.2,2.4,4,4.2,5.5,5.5c1.4-1.3,3.6-3.6,6.6-7s5.5-6.1,7.4-7.9c1.9-2,4.5-3.9,7.6-5.7c3.1-1.8,6.2-2.7,9.1-2.7
	c1.8,0,3.7,0.4,5.6,1.1c1.9,0.6,3.7,1.6,5.3,2.8c1.7,1.1,3.2,2.5,4.5,4c1.4,1.4,2.5,3,3.1,4.7c0.8,1.6,1.2,3.3,1.2,4.9
	c0,2.1-0.4,4.3-1.2,6.4c-0.8,2-2.3,4.3-4.5,6.8c-2.2,2.4-3.8,4.2-4.9,5.3c-0.9,1-3,2.9-6.2,5.7l-4.7,4c0.4,0.5,1.9,1.7,4.5,3.6
	s4.7,3.5,6.2,4.9c1.7,1.4,3.6,3,5.6,4.9c2.1,1.9,3.6,3.6,4.7,5.3c1.2,1.5,1.8,2.9,1.8,4.2c0,5.2-2.6,10-7.8,14.6
	c-5.2,4.5-10.6,6.8-16.3,6.8c-1.3,0-2.7-0.2-4.1-0.6c-1.3-0.4-2.5-0.8-3.7-1.1c-1-0.5-2.3-1.3-3.7-2.3s-2.6-1.8-3.5-2.5
	c-0.8-0.6-1.9-1.6-3.5-3c-1.4-1.4-2.5-2.3-3.1-2.8c-0.5-0.6-1.6-1.8-3.1-3.4C591.6,147.5,590.7,146.5,590.3,146.1L590.3,146.1z"/>
<path id="f-frame" class="st1" d="M719.2,65.3c-2.7,2.2-4.1,7.1-4.1,15c8.7,0,14.7,0.8,18.1,2.5c3.4,1.5,5.1,4.9,5.1,10.2
	c0,4.3-1.8,7.1-5.5,8.5c-3.6,1.3-9.5,1.9-17.7,1.9v33.2c0,10.8-1.8,18.2-5.3,22.4c-3.4,4-8.8,6.1-16.2,6.1c-7.3,0-12.6-2-16-5.9
	c-3.4-4.1-5.1-11.1-5.1-21.2l0.2-34.5c-9.6-0.1-14.4-3.8-14.4-11c0-7.5,4.9-11.4,14.6-11.9c0.1-16.3,2.5-27.9,7.2-34.7
	c4.8-7,14-10.4,27.5-10.4c10.8,0,19.2,2.2,25.1,6.5c6.1,4.3,9.2,8.7,9.2,13.1c0,1.9-0.8,3.6-2.5,5.1c-1.6,1.4-3.8,2.1-6.8,2.1
	C726.3,62,721.8,63.1,719.2,65.3L719.2,65.3z"/>
<path id="a-frame" class="st1" d="M790.2,166.1c-10.3,0-18.8-4-25.5-12.1c-6.8-8.2-10.1-19.4-10.1-33.6c0-14.4,3.3-25.8,9.9-34.3
	c6.8-8.6,15.3-12.9,25.7-12.9c10.5,0,20.3,3.6,29.2,10.8c3.5-6.3,9.2-9.5,16.9-9.5c7,0,12.5,1.5,16.4,4.6c3.9,2.9,5.8,8.3,5.8,16.3
	v49.3c0,7.6-1.6,12.9-4.9,15.9c-3.2,2.9-9,4.4-17.1,4.4c-8.6,0-14.2-2.3-16.9-7C811.3,163.4,801.5,166.1,790.2,166.1L790.2,166.1z
	 M816.7,102.2c-2.2-3.7-5.1-5.5-8.6-5.5c-3.4,0-6.1,2.4-8.2,7.2s-3.1,10.3-3.1,16.5c0,5.8,1,11,2.9,15.5c2,4.6,4.7,6.8,8.2,6.8
	c3.6,0,6.6-1.7,8.8-5.1L816.7,102.2L816.7,102.2z"/>
<path id="m-frame" class="st1" d="M986.5,114.9c0-7.1-2.9-10.6-8.8-10.6c-2.6,0-4.5,1.4-5.8,4.4c-1.3,2.9-2,6.6-2,11
	c0,6.7-0.1,12.3-0.4,16.7c-0.1,4.4-0.5,8.4-1.2,11.9s-1.4,6.3-2.3,8.3c-0.9,2-2.1,3.7-3.7,5.1c-1.5,1.3-3.3,2.2-5.3,2.7
	c-2,0.4-4.4,0.6-7.4,0.6c-4.5,0-8.2-0.6-11.1-1.9c-2.7-1.3-4.7-3-5.8-5.3c-1.2-2.3-1.8-5.1-1.8-8.5V115c0-7.1-2.9-10.6-8.8-10.6
	c-2.3,0-4.3,1.3-5.8,4c-1.4,2.5-2.1,5.9-2.1,10.1v26.4c0,7.6-1.6,12.9-4.9,15.9c-3.2,2.9-9,4.4-17.1,4.4c-7.7,0-12.9-1.7-15.8-5.1
	c-2.7-3.5-4.1-9.3-4.1-17.3V96c0-6.4,1.8-11.6,5.3-15.6c3.6-3.9,8.4-5.9,14.4-5.9c10.6,0,17.4,3.3,20.3,10.1c4.9-3.5,9.7-6,14.4-7.4
	c4.8-1.4,10.4-2.1,16.8-2.1c9.6,0,16.5,4.1,20.8,12.1c0.7-0.5,1.3-1,2-1.5c10-7.1,22.3-10.6,36.8-10.6c9.2,0,15.8,3.4,19.9,10.2
	c4,6.8,6,18.3,6,34.3c0,6.7-0.1,12.3-0.4,16.7c-0.1,4.4-0.5,8.4-1.2,11.9s-1.5,6.3-2.5,8.3c-0.9,2-2.3,3.7-4.1,5.1
	c-1.7,1.3-3.6,2.1-5.8,2.7c-2.1,0.4-4.7,0.6-8,0.6c-4.9,0-9-0.6-12.1-1.9c-3-1.3-5.1-3-6.4-5.3c-1.3-2.3-1.9-5.1-1.9-8.5
	L986.5,114.9L986.5,114.9z"/>
<path id="e-frame" class="st1" d="M1098.1,166.1c-15.8,0-28.9-4-39.3-11.9c-10.3-8-15.4-18.8-15.4-32.6c0-14.9,5.1-26.7,15.2-35.3
	c10.3-8.7,23.4-13.1,39.5-13.1c15.2,0,26.3,2.7,33.3,8c7.1,5.2,10.7,12.3,10.7,21.4c0,1.8-0.3,3.5-0.8,5.1c-0.4,1.6-1.1,3.3-2.1,4.9
	c-0.9,1.5-2.2,3-3.9,4.4c-1.6,1.3-3.4,2.5-5.4,3.6c-2.1,1-4.5,1.8-7.4,2.5c-2.9,0.5-5.9,0.8-9.2,0.8l-27.4,0.2
	c1.3,4.1,3.6,7.3,7,9.7c3.4,2.3,7.7,3.4,12.8,3.4c5.6,0,11.3-0.7,17.1-2.1c2.5-0.6,5.1-1.6,8-3c3-1.4,5.1-2.1,6.4-2.1
	c2.2,0,3.9,0.6,5.1,1.9c1.3,1.3,1.9,2.8,1.9,4.7c0,2.3-1,5.1-3.1,8.3s-5,6.4-8.8,9.7c-3.6,3.2-8.5,5.9-14.6,8.1
	C1111.6,165,1105.1,166.1,1098.1,166.1L1098.1,166.1z M1084.8,111.9c9-0.1,13.8-0.2,14.6-0.2c1.9,0,3.4-1.1,4.3-3.4
	c0.7-1.6,1-3.9,1-6.8c0-8-2.5-11.9-7.4-11.9c-1.8,0-3.6,0.9-5.4,2.8c-1.7,1.9-3.2,4.6-4.5,8.2
	C1086.1,103.9,1085.2,107.7,1084.8,111.9z"/>
<path id="u-frame" class="st1" d="M139.9,58v56.4c0,18.4-4.6,31.6-13.8,39.7C117,162,101.6,166,80,166c-20.6,0-35.8-4.3-45.5-12.9
	c-9.6-8.6-14.4-21.5-14.4-38.8V58c0-6.7,2-12.1,6-16.3c4.1-4.3,9.3-6.4,15.6-6.4c7.7,0,13.4,1.4,17.3,4.2c4,2.8,6,8.4,6,16.8v61.6
	c0.1,4,0.8,7.3,1.9,9.6c1.3,2.4,3,4.1,5.1,5.1c2.1,0.9,4.7,1.3,8,1.3s5.9-0.4,8-1.1s3.6-1.9,4.5-3.6c1-1.6,1.7-3.3,1.9-4.9
	c0.4-1.6,0.6-3.8,0.6-6.4V56.1c0-4.3,0.5-7.9,1.6-10.8c1.2-2.9,2.8-5,5.1-6.4c2.3-1.4,4.7-2.3,7-2.8c2.5-0.5,5.4-0.8,8.8-0.8
	c7.5,0,13.1,1.8,16.9,5.3S139.9,49.9,139.9,58L139.9,58z"/>
<path id="n-frame" class="st1" d="M215,113.9c0-7.1-2.9-10.6-8.6-10.6c-2.7,0-5,1.1-6.8,3.4c-1.7,2.1-2.7,5-2.9,8.7v29.1
	c0,7.7-1.6,13-4.9,15.9c-3.2,2.9-8.9,4.4-17.1,4.4c-7.6,0-12.9-1.7-15.8-5.1c-2.7-3.5-4.1-9.3-4.1-17.2V96c0-6.4,1.8-11.6,5.3-15.5
	c3.6-3.9,8.4-5.9,14.4-5.9c4.9,0,9.1,0.7,12.4,2.1c3.4,1.4,5.9,3.8,7.6,7.2c10.1-6.4,22.4-9.6,36.9-9.6c9.2,0,15.8,3.5,19.8,10.6
	c4.1,7.1,6.2,18.7,6.2,34.8c0,7.9-0.2,14.4-0.6,19.5c-0.4,4.9-1,9.2-1.9,12.9c-0.8,3.5-2.1,6.2-3.9,7.9c-1.8,1.8-3.9,3-6.4,3.8
	c-2.3,0.8-5.4,1.1-9.1,1.1c-7.3,0-12.5-1.3-15.8-4c-3.1-2.6-4.7-6.6-4.7-11.7V113.9L215,113.9z"/>
<path id="b-frame" class="st1" d="M315.3,82.4c8.5-6.2,17.8-9.3,27.8-9.3c10.1,0,18.5,4.2,25.3,12.5s10.1,18.8,10.1,31.6
	c0,15.4-5.1,27.4-15.4,36.1c-10.2,8.6-23.5,12.9-39.9,12.9c-10,0-18.7-1.4-26.2-4.2c-7.4-2.8-13.2-6.9-17.5-12.5
	c-4.1-5.6-6.3-12.2-6.4-20l-0.4-71.3c0-7.8,1.9-13.5,5.8-17.2s9.1-5.5,15.5-5.5c7.3,0,12.6,1.7,15.9,5.1c3.5,3.3,5.3,8.6,5.3,15.9
	L315.3,82.4L315.3,82.4z M315.5,135.9c2.3,4.3,5.6,6.4,9.7,6.4c3.5,0,6.2-2.1,8.2-6.4s2.9-9.2,2.9-14.8c0-3-0.3-6-0.8-8.9
	s-1.2-5.5-2.1-7.8c-0.9-2.4-2.1-4.3-3.5-5.7c-1.4-1.5-3-2.3-4.9-2.3c-4,0-7.2,2.3-9.5,7v14.2C315.5,125.4,315.5,131.5,315.5,135.9
	L315.5,135.9z"/>
<path id="x-frame" class="st1" d="M590.3,146.1c-0.3,0.4-1.1,1.3-2.5,2.6c-1.4,1.4-2.4,2.3-2.9,2.8c-0.4,0.5-1.3,1.4-2.7,2.8
	c-1.3,1.3-2.3,2.2-3.1,2.8c-0.7,0.5-1.6,1.3-2.9,2.3c-1.3,1-2.5,1.8-3.5,2.3c-0.9,0.4-1.9,0.9-3.1,1.5c-1.2,0.5-2.3,0.9-3.5,1.1
	c-1.2,0.3-2.3,0.4-3.5,0.4c-5.7,0-11.2-2.3-16.3-6.8s-7.8-9.4-7.8-14.6c0-1.3,0.5-2.6,1.6-4.2c1.2-1.6,2.8-3.4,4.9-5.3
	c2.2-1.9,4.1-3.5,5.6-4.9c1.7-1.4,3.8-3,6.2-4.9c2.6-1.9,4.2-3.1,4.7-3.6c-1-0.8-2.5-1.9-4.5-3.4c-1.6-1.4-3.3-2.8-4.9-4.2
	c-1.3-1.1-2.8-2.5-4.5-4.2c-1.7-1.8-3-3.4-4.1-4.9c-0.9-1.6-1.8-3.5-2.5-5.5c-0.8-2-1.2-4.1-1.2-6.2c0-4.3,2.1-8.3,6.4-11.9
	c4.3-3.7,8.7-5.5,13.2-5.5c2.5,0,4.9,0.5,7.2,1.5s4.5,2.5,6.6,4.3c2.2,1.8,4.2,3.6,5.8,5.5c1.8,1.8,3.8,3.9,5.8,6.4
	c2.2,2.4,4,4.2,5.5,5.5c1.4-1.3,3.6-3.6,6.6-7s5.5-6.1,7.4-7.9c1.9-2,4.5-3.9,7.6-5.7c3.1-1.8,6.2-2.7,9.1-2.7
	c1.8,0,3.7,0.4,5.6,1.1c1.9,0.6,3.7,1.6,5.3,2.8c1.7,1.1,3.2,2.5,4.5,4c1.4,1.4,2.5,3,3.1,4.7c0.8,1.6,1.2,3.3,1.2,4.9
	c0,2.1-0.4,4.3-1.2,6.4c-0.8,2-2.3,4.3-4.5,6.8c-2.2,2.4-3.8,4.2-4.9,5.3c-0.9,1-3,2.9-6.2,5.7l-4.7,4c0.4,0.5,1.9,1.7,4.5,3.6
	s4.7,3.5,6.2,4.9c1.7,1.4,3.6,3,5.6,4.9c2.1,1.9,3.6,3.6,4.7,5.3c1.2,1.5,1.8,2.9,1.8,4.2c0,5.2-2.6,10-7.8,14.6
	c-5.2,4.5-10.6,6.8-16.3,6.8c-1.3,0-2.7-0.2-4.1-0.6c-1.3-0.4-2.5-0.8-3.7-1.1c-1-0.5-2.3-1.3-3.7-2.3s-2.6-1.8-3.5-2.5
	c-0.8-0.6-1.9-1.6-3.5-3c-1.4-1.4-2.5-2.3-3.1-2.8c-0.5-0.6-1.6-1.8-3.1-3.4C591.6,147.5,590.7,146.5,590.3,146.1L590.3,146.1z"/>
<path class="st0" d="M459.1,165.6c1.2,0,2.5-0.4,3.5-1.1l55.1-39.4c1.6-1.1,2.5-2.9,2.5-4.8v-4.9c0-4.8-5.5-7.7-9.4-4.8l-62,44.4
	c-4.7,3.4-2.3,10.8,3.5,10.8L459.1,165.6L459.1,165.6z M514.2,166.1c3.3,0,6-2.7,6-5.9v-17.7c0-4.9-5.7-7.7-9.6-4.7l-23,17.7
	c-4.5,3.5-2.1,10.7,3.6,10.7L514.2,166.1L514.2,166.1z"/>
<path class="st0" d="M397.8,148.3c0,9.9,8,17.8,17.8,17.8h2c3.9,0,7.7-1.3,10.8-3.6l87-66.4c2.7-2,4.2-5.2,4.2-8.5
	c0-5.9-4.8-10.7-10.7-10.7h-93.4c-9.9,0-17.8,8-17.8,17.8L397.8,148.3L397.8,148.3z"/>
<path class="st0" d="M504.5,9.4L402.4,46.9c-5.8,2.1-8.8,8.6-6.7,14.5c2.1,5.8,8.5,8.8,14.4,6.7l102.1-37.5
	c5.8-2.1,8.8-8.6,6.7-14.5C516.8,10.3,510.3,7.3,504.5,9.4z"/>
</svg>
