<svg xmlns="http://www.w3.org/2000/svg" version="1.1" xmlns:xlink="http://www.w3.org/1999/xlink" xmlns:svgjs="http://svgjs.com/svgjs" width="512" height="512" x="0" y="0" viewBox="0 0 512.001 512.001" style="enable-background:new 0 0 512 512" xml:space="preserve" class=""><g><path d="M504.923 324.457c-3.619-3.899-8.215-6.565-13.276-7.765 2.92-8.968 1.033-19.22-5.825-26.607-4.878-5.254-11.51-8.294-18.674-8.559-.216-.008-.43-.005-.645-.008.329-6.955-2.02-14.032-7.119-19.524-4.818-5.19-11.348-8.214-18.412-8.543.637-7.297-1.688-14.825-7.051-20.602-4.877-5.254-11.51-8.294-18.674-8.559-7.156-.266-14.002 2.276-19.255 7.156l-3.56 3.307c-5.171-3.732-11.358-5.852-17.93-6.069a33.847 33.847 0 0 0-9.549 1.071l-14.547-17.393c-5.163-6.172-14.387-6.995-20.561-1.839l-3.791 3.166L173.791 32.15a7.5 7.5 0 0 0-11.492 9.637l.269.32L3.948 174.575a10.906 10.906 0 0 0-3.933 8.998 10.906 10.906 0 0 0 4.829 8.553l60.246 40.661 31.852 69.783a10.91 10.91 0 0 0 7.571 6.157c.82.187 1.645.277 2.462.277 2.545 0 5.015-.887 7.024-2.568l158.796-132.904 41.747 49.774-5.259 4.391a14.517 14.517 0 0 0-5.185 9.907 14.502 14.502 0 0 0 3.344 10.67l14.776 17.666a43.185 43.185 0 0 0-4.786 9.726l-29.479 72.511-141.772 109.008c-4.876 3.751-6.747 9.936-4.766 15.76 1.98 5.823 7.234 9.585 13.384 9.585h155.845c3.79 0 7.481-1.557 10.127-4.273l42.316-43.447 44.546-3.201c.274-.02.547-.054.817-.103a53.534 53.534 0 0 0 26.579-13.276l18.713-16.988c.144-.112.293-.215.433-.333l12.032-10.091a26.368 26.368 0 0 0 13.485-6.701l23.844-22.151c10.72-9.959 11.342-26.785 1.387-37.509zM108.405 291.56l-30.138-66.028a10.982 10.982 0 0 0-3.85-4.546l-56.766-38.312L172.206 53.6l90.952 108.44-154.753 129.52zm325.979-2.044c.29-5.806-1.474-11.352-4.987-15.832l2.266-2.105a11.799 11.799 0 0 1 8.492-3.156 11.758 11.758 0 0 1 8.236 3.775c4.148 4.469 4.174 11.313.258 15.814-.255.22-.509.44-.757.67l-23.422 21.76c-.345.321-.68.649-1.004.983a11.684 11.684 0 0 1-6.041 2.356 24.743 24.743 0 0 0 4.752-3.435l4.344-4.036c4.751-4.412 7.543-10.377 7.863-16.794zm-28.184-47.08c2.316-2.152 5.325-3.283 8.493-3.156a11.753 11.753 0 0 1 8.236 3.774c4.439 4.781 4.161 12.283-.618 16.723l-3.076 2.857-16.129-17.324 3.094-2.874zm-86.998-3.481 19.954-16.664 12.223 14.613c-.374.323-.745.652-1.108.993l-17.879 16.828-13.19-15.77zm105.711 168.204c-5.3 4.875-11.788 8.162-18.784 9.521l-46.961 3.375a7.503 7.503 0 0 0-4.834 2.247l-44.053 45.23h-152.95l141.376-108.704c.104-.08.197-.168.296-.252.068-.058.137-.112.202-.172.239-.219.462-.45.666-.693.04-.048.077-.099.116-.148a7.53 7.53 0 0 0 .514-.727c.029-.047.06-.092.089-.14.177-.3.33-.609.462-.927.009-.021.021-.039.03-.06l30.327-74.598c.059-.144.112-.289.162-.436a28.384 28.384 0 0 1 7.439-11.582l21.539-20.272c3.699-3.48 8.481-5.314 13.458-5.143 4.712.155 9.044 2.106 12.197 5.492l.802.861.001.001.001.001 26.341 28.293.007.008.006.006.003.004.006.006 3.733 4.009c1.603 1.722 2.42 4 2.3 6.411-.124 2.49-1.222 4.818-3.092 6.555l-4.343 4.035c-3.007 2.792-7.281 3.319-10.596 1.625-.082-.045-.168-.081-.251-.123a8.52 8.52 0 0 1-2.117-1.655l-10.936-11.762c-3.909-4.205-9.249-6.626-15.035-6.82-5.94-.199-11.612 1.954-15.977 6.063a7.501 7.501 0 0 0-2.344 5.945c.181 2.794.1 5.471-.228 8.05-.018.134-.04.268-.051.403-.88 6.389-3.333 12.157-7.424 17.467a7.498 7.498 0 1 0 11.88 9.153 53.17 53.17 0 0 0 6.29-10.399l68.408 81.786c.03.036.065.068.096.104l-8.771 7.962zm19.882-18.05-75.122-89.81a56.73 56.73 0 0 0 .131-3.238 6.996 6.996 0 0 1 2.729-.448c1.765.059 3.382.784 4.551 2.042l10.936 11.762a23.5 23.5 0 0 0 3.631 3.18 26.444 26.444 0 0 0 4.978 7.669c4.877 5.254 11.51 8.294 18.674 8.56.215.007.43.009.644.012-.327 6.954 2.021 14.028 7.119 19.52 3.654 3.936 8.293 6.629 13.403 7.844-2.985 8.92-1.138 19.163 5.699 26.528a26.732 26.732 0 0 0 5.004 4.22l-2.377 2.159zm-2.499-47.181a11.753 11.753 0 0 1-8.235-3.774c-4.148-4.469-4.175-11.312-.26-15.812.255-.22.51-.442.758-.672l23.422-21.759c.346-.321.68-.65 1.005-.984a11.805 11.805 0 0 1 7.606-2.411 11.758 11.758 0 0 1 8.236 3.775c4.439 4.781 4.161 12.283-.618 16.723l-4.319 4.013a27.044 27.044 0 0 0-2.491 2.043l-18.312 17.012a11.72 11.72 0 0 1-6.792 1.846zm51.032 9.05-23.843 22.15a11.42 11.42 0 0 1-6.932 3.046c-.103.007-.206.012-.308.023a11.466 11.466 0 0 1-9.082-3.672c-4.331-4.666-4.061-11.985.602-16.317l4.731-4.395a27.265 27.265 0 0 0 2.502-2.053l18.298-16.999a11.454 11.454 0 0 1 6.6-1.784 11.476 11.476 0 0 1 8.037 3.683c4.329 4.666 4.058 11.986-.605 16.318z" fill="#005e54" data-original="#000000"></path></g></svg>